<svg width="1280" height="640" viewBox="0 0 1280 640" fill="none" xmlns="http://www.w3.org/2000/svg">
  <defs>
    <linearGradient id="liquid" x1="760" y1="90" x2="1180" y2="520" gradientUnits="userSpaceOnUse">
      <stop stop-color="#C8CFD8"/>
      <stop offset="0.45" stop-color="#A1B0CF"/>
      <stop offset="1" stop-color="#F6F8FA"/>
    </linearGradient>
    <radialGradient id="haloA" cx="0" cy="0" r="1" gradientUnits="userSpaceOnUse" gradientTransform="translate(1030 188) rotate(90) scale(240 260)">
      <stop stop-color="#A1B0CF" stop-opacity="0.30"/>
      <stop offset="1" stop-color="#A1B0CF" stop-opacity="0"/>
    </radialGradient>
    <radialGradient id="haloB" cx="0" cy="0" r="1" gradientUnits="userSpaceOnUse" gradientTransform="translate(860 488) rotate(90) scale(180 240)">
      <stop stop-color="#C8CFD8" stop-opacity="0.34"/>
      <stop offset="1" stop-color="#C8CFD8" stop-opacity="0"/>
    </radialGradient>
    <marker id="arrowhead" markerWidth="10" markerHeight="10" refX="8" refY="5" orient="auto">
      <path d="M0 0L10 5L0 10Z" fill="#A1B0CF"/>
    </marker>
  </defs>
  <rect width="1280" height="640" fill="#F6F8FA"/>
  <rect x="0" y="0" width="1280" height="640" fill="url(#haloA)"/>
  <rect x="0" y="0" width="1280" height="640" fill="url(#haloB)"/>
  <path d="M720 84C836 44 1042 72 1166 176C1236 234 1270 304 1280 358V640H720V84Z" fill="url(#liquid)" opacity="0.48"/>
  <path d="M782 114C920 72 1110 136 1228 284" stroke="#FFFFFF" stroke-opacity="0.58" stroke-width="2"/>
  <path d="M742 518C856 446 1050 456 1220 548" stroke="#FFFFFF" stroke-opacity="0.52" stroke-width="2"/>
  <text x="88" y="98" fill="#5F6672" font-family="DejaVu Sans, Arial, sans-serif" font-size="24" font-weight="600" letter-spacing="0.5">fastxyz / skill-optimizer</text>
  <text x="88" y="210" fill="#2B2C2F" font-family="DejaVu Sans, Arial, sans-serif" font-size="90" font-weight="700" letter-spacing="-2.5">skill-optimizer</text>
  <text x="88" y="278" fill="#5F6672" font-family="DejaVu Sans, Arial, sans-serif" font-size="30" font-weight="500">Benchmark and self-optimize SDK, CLI, and MCP guidance</text>
  <text x="88" y="322" fill="#5F6672" font-family="DejaVu Sans, Arial, sans-serif" font-size="28">so every agent model can use your tool reliably.</text>
  <g>
    <rect x="88" y="378" width="88" height="42" rx="21" fill="#FFFFFF" stroke="#C8CFD8"/>
    <text x="132" y="405" text-anchor="middle" fill="#2B2C2F" font-family="DejaVu Sans, Arial, sans-serif" font-size="18" font-weight="700">SDK</text>
    <rect x="188" y="378" width="80" height="42" rx="21" fill="#FFFFFF" stroke="#C8CFD8"/>
    <text x="228" y="405" text-anchor="middle" fill="#2B2C2F" font-family="DejaVu Sans, Arial, sans-serif" font-size="18" font-weight="700">CLI</text>
    <rect x="280" y="378" width="92" height="42" rx="21" fill="#FFFFFF" stroke="#C8CFD8"/>
    <text x="326" y="405" text-anchor="middle" fill="#2B2C2F" font-family="DejaVu Sans, Arial, sans-serif" font-size="18" font-weight="700">MCP</text>
    <rect x="384" y="378" width="176" height="42" rx="21" fill="#FFFFFF" stroke="#C8CFD8"/>
    <text x="472" y="405" text-anchor="middle" fill="#2B2C2F" font-family="DejaVu Sans, Arial, sans-serif" font-size="18" font-weight="700">multi-model scoring</text>
  </g>
  <text x="88" y="492" fill="#5F6672" font-family="DejaVu Sans, Arial, sans-serif" font-size="22" font-weight="600">Turns messy docs into dependable tool use.</text>
  <text x="88" y="532" fill="#5F6672" font-family="DejaVu Sans, Arial, sans-serif" font-size="21">Discover surface → generate tasks → benchmark → optimize → accept</text>
  <g transform="translate(1038 64) scale(1.18)"><g fill="#121719">
<path d="M84.8983 0.0598478C85.5104 -0.0185278 86.3199 0.00330379 86.9495 0.0014636C97.7663 -0.0305725 105.415 5.6742 105.361 16.9667C103.601 16.9578 101.841 16.9582 100.081 16.9681C100.082 16.4235 100.085 15.8766 100.064 15.3324C99.9621 12.6606 99.0833 9.83714 97.0715 7.98306C94.0395 5.18814 89.3477 4.76297 85.4093 4.93971C82.205 5.0835 78.4414 5.63706 76.1703 8.14089C74.743 9.71543 74.3859 11.7291 74.4854 13.7953C74.5674 15.5125 74.9186 17.2061 76.1093 18.5125C80.5076 23.3381 95.9284 22.4144 102.411 28.338C104.807 30.5274 106.03 33.5009 106.176 36.7166C106.333 40.1877 105.315 43.6594 102.936 46.2492C99.4529 50.0399 94.4559 51.0594 89.5358 51.2706C89.1729 51.2767 88.8092 51.2797 88.4463 51.2797C77.3385 51.271 68.6933 46.4761 68.7179 34.3217L74.0029 34.3231C73.9979 34.967 73.9988 35.6166 74.0489 36.2586C74.2605 38.9365 75.0657 41.4643 77.1654 43.245C80.7894 46.3192 86.7053 46.565 91.2642 46.1907C94.0829 45.9592 97.2613 45.2751 99.1761 43.0077C100.603 41.318 100.986 38.9598 100.802 36.8119C100.642 34.9361 100.056 33.1116 98.6602 31.7892C93.7318 27.1197 79.5945 28.3014 73.0965 22.8101C70.603 20.7032 69.3517 18.0958 69.0847 14.8562C68.8013 11.4172 69.7194 8.13429 71.9735 5.48591C75.2095 1.68315 80.1313 0.447209 84.8983 0.0598478Z"/>
<path d="M55.9766 0.80249L64.2183 0.808345L64.2171 50.5481L58.7964 50.5471C58.7628 47.4501 58.8372 44.227 58.8453 41.114L58.9274 17.6427L58.9507 9.40532C58.9521 8.76936 58.9952 6.34131 58.9164 5.92743L58.7273 5.8734C58.4573 5.99711 49.3034 20.1531 48.1396 21.9382L35.7724 40.8892C33.754 43.9826 31.563 47.5393 29.4618 50.5451L23.4698 50.5493L43.815 19.3812L51.7684 7.2001C53.0667 5.21327 54.6207 2.68275 55.9766 0.80249Z"/>
<path d="M0.00012207 0.763916L33.3706 0.764333L33.3691 5.5777L5.35292 5.57594L5.35393 24.5317L30.2247 24.5316L32.2625 24.532L32.2622 29.3728L5.35242 29.3721L5.35359 50.5464L0.00221201 50.5472L0.00012207 0.763916Z"/>
<path d="M105.207 0.764047L145.802 0.762207L145.801 5.58101C140.005 5.49862 134.024 5.57549 128.214 5.57549L128.215 32.94L128.216 50.5472L122.926 50.5463V5.58034C117.137 5.47787 111.026 5.57499 105.207 5.57825V0.764047Z"/>
</g></g>
  <g>
    <rect x="744" y="122" width="452" height="396" rx="34" fill="#FFFFFF" fill-opacity="0.72" stroke="#C8CFD8" stroke-width="1.5"/>
    <rect x="780" y="158" width="74" height="34" rx="17" fill="#F6F8FA" stroke="#C8CFD8"/>
    <text x="817" y="180" text-anchor="middle" fill="#2B2C2F" font-family="DejaVu Sans, Arial, sans-serif" font-size="16" font-weight="700">SDK</text>
    <rect x="866" y="158" width="70" height="34" rx="17" fill="#F6F8FA" stroke="#C8CFD8"/>
    <text x="901" y="180" text-anchor="middle" fill="#2B2C2F" font-family="DejaVu Sans, Arial, sans-serif" font-size="16" font-weight="700">CLI</text>
    <rect x="948" y="158" width="74" height="34" rx="17" fill="#F6F8FA" stroke="#C8CFD8"/>
    <text x="985" y="180" text-anchor="middle" fill="#2B2C2F" font-family="DejaVu Sans, Arial, sans-serif" font-size="16" font-weight="700">MCP</text>
    <rect x="794" y="224" width="182" height="208" rx="24" fill="#FFFFFF" stroke="#C8CFD8" stroke-width="2"/>
    <rect x="816" y="248" width="82" height="18" rx="9" fill="#A1B0CF" fill-opacity="0.22"/>
    <text x="858" y="262" text-anchor="middle" fill="#2B2C2F" font-family="DejaVu Sans, Arial, sans-serif" font-size="16" font-weight="700">SKILL.md</text>
    <rect x="818" y="292" width="132" height="10" rx="5" fill="#C8CFD8"/>
    <rect x="818" y="320" width="116" height="10" rx="5" fill="#C8CFD8"/>
    <rect x="818" y="348" width="124" height="10" rx="5" fill="#C8CFD8"/>
    <rect x="818" y="376" width="98" height="10" rx="5" fill="#C8CFD8"/>
    <rect x="818" y="404" width="120" height="10" rx="5" fill="#A1B0CF" fill-opacity="0.45"/>
    <path d="M958 326C996 292 1014 278 1034 276C1064 273 1095 292 1110 316" stroke="#A1B0CF" stroke-width="8" stroke-linecap="round" fill="none" marker-end="url(#arrowhead)"/>
    <circle cx="1076" cy="326" r="96" fill="#FFFFFF" fill-opacity="0.88" stroke="#C8CFD8" stroke-width="2"/>
    <circle cx="1076" cy="326" r="72" fill="none" stroke="#C8CFD8" stroke-width="14"/>
    <path d="M1024 372A72 72 0 1 1 1134 264" fill="none" stroke="#A1B0CF" stroke-width="14" stroke-linecap="round"/>
    <text x="1076" y="314" text-anchor="middle" fill="#5F6672" font-family="DejaVu Sans, Arial, sans-serif" font-size="16" font-weight="700" letter-spacing="1.6">VERDICT</text>
    <text x="1076" y="348" text-anchor="middle" fill="#2B2C2F" font-family="DejaVu Sans, Arial, sans-serif" font-size="42" font-weight="700">PASS</text>
    <text x="1076" y="378" text-anchor="middle" fill="#5F6672" font-family="DejaVu Sans, Arial, sans-serif" font-size="18" font-weight="600">0.91 avg</text>
    <text x="794" y="470" fill="#5F6672" font-family="DejaVu Sans, Arial, sans-serif" font-size="18" font-weight="600">Benchmarked across flagship and mid-tier models</text>
    <g>
      <circle cx="918" cy="470" r="7" fill="#A1B0CF"/>
      <circle cx="946" cy="470" r="7" fill="#8DA0C4"/>
      <circle cx="974" cy="470" r="7" fill="#7488AC"/>
      <circle cx="1002" cy="470" r="7" fill="#5F6672"/>
      <circle cx="1030" cy="470" r="7" fill="#2B2C2F"/>
    </g>
  </g>
</svg>